<svg xmlns="http://www.w3.org/2000/svg" viewBox="0 0 900 520"><rect width="900" height="520" fill="#eef3f1"/><rect x="190" y="80" width="520" height="360" rx="30" fill="#20282b"/><rect x="270" y="125" width="360" height="95" rx="12" fill="#315d45"/><rect x="315" y="145" width="270" height="55" rx="8" fill="#11191c"/><text x="450" y="182" text-anchor="middle" font-family="Arial" font-size="30" fill="#dff7e8">ESP32</text><g fill="#d7b75c"><rect x="210" y="65" width="12" height="35" rx="3"/><rect x="210" y="435" width="12" height="35" rx="3"/><rect x="242" y="65" width="12" height="35" rx="3"/><rect x="242" y="435" width="12" height="35" rx="3"/><rect x="274" y="65" width="12" height="35" rx="3"/><rect x="274" y="435" width="12" height="35" rx="3"/><rect x="306" y="65" width="12" height="35" rx="3"/><rect x="306" y="435" width="12" height="35" rx="3"/><rect x="338" y="65" width="12" height="35" rx="3"/><rect x="338" y="435" width="12" height="35" rx="3"/><rect x="370" y="65" width="12" height="35" rx="3"/><rect x="370" y="435" width="12" height="35" rx="3"/><rect x="402" y="65" width="12" height="35" rx="3"/><rect x="402" y="435" width="12" height="35" rx="3"/><rect x="434" y="65" width="12" height="35" rx="3"/><rect x="434" y="435" width="12" height="35" rx="3"/><rect x="466" y="65" width="12" height="35" rx="3"/><rect x="466" y="435" width="12" height="35" rx="3"/><rect x="498" y="65" width="12" height="35" rx="3"/><rect x="498" y="435" width="12" height="35" rx="3"/><rect x="530" y="65" width="12" height="35" rx="3"/><rect x="530" y="435" width="12" height="35" rx="3"/><rect x="562" y="65" width="12" height="35" rx="3"/><rect x="562" y="435" width="12" height="35" rx="3"/><rect x="594" y="65" width="12" height="35" rx="3"/><rect x="594" y="435" width="12" height="35" rx="3"/><rect x="626" y="65" width="12" height="35" rx="3"/><rect x="626" y="435" width="12" height="35" rx="3"/><rect x="658" y="65" width="12" height="35" rx="3"/><rect x="658" y="435" width="12" height="35" rx="3"/><rect x="690" y="65" width="12" height="35" rx="3"/><rect x="690" y="435" width="12" height="35" rx="3"/></g><text x="450" y="485" text-anchor="middle" font-family="Arial" font-size="25" fill="#315c43">ESP32 development board</text></svg>